<?xml version="1.0" encoding="utf-8"?>
<!-- Generator: Adobe Illustrator 24.1.2, SVG Export Plug-In . SVG Version: 6.00 Build 0)  -->
<svg version="1.1" id="Layer_2_1_" xmlns="http://www.w3.org/2000/svg" xmlns:xlink="http://www.w3.org/1999/xlink" x="0px" y="0px"
	 width="100px" height="47px" viewBox="0 0 100 47" style="enable-background:new 0 0 100 47;" xml:space="preserve">
<style type="text/css">
	.st0{fill:#333334;}
	.st1{fill:#71B62B;}
	.st2{opacity:0.46;fill:url(#SVGID_1_);enable-background:new    ;}
	.st3{fill:#AACA45;}
	.st4{fill:#B1CD3E;}
	.st5{fill:#BED787;}
	.st6{fill:#BED014;}
	.st7{fill:#3D9B35;}
	.st8{fill:#2B8E35;}
	.st9{fill:#3C9F36;}
	.st10{fill:#6EB52C;}
	.st11{fill:#72B62B;}
	.st12{fill:#57AC31;}
	.st13{fill:#77B829;}
	.st14{fill:#5DB12F;}
	.st15{fill:#308232;}
	.st16{fill:#A4C71F;}
	.st17{fill:#94C123;}
	.st18{fill:#8FBF22;}
	.st19{fill:#A2C61F;}
	.st20{fill:#62B02F;}
	.st21{fill:#89BE27;}
	.st22{fill:#8FBF25;}
	.st23{fill:#82BB25;}
	.st24{fill:#A2C61D;}
	.st25{fill:#9EC421;}
	.st26{fill:#A7C820;}
	.st27{fill:#B3CD20;}
	.st28{fill:#A5C722;}
	.st29{fill:#9DC421;}
	.st30{fill:#AECB19;}
	.st31{fill:#B0CB1F;}
	.st32{fill:#AAC921;}
	.st33{fill:#C3D320;}
	.st34{fill:#B7D053;}
	.st35{fill:#FFFFFF;}
</style>
<path class="st0" d="M64.7,13h-3.9v1.9h3.5c0.6,0,1.1,0.5,1.1,1.1v1.2H63c-1.5,0-2.8,1.3-2.8,2.8v1.6c0,1.5,1.3,2.8,2.8,2.8h4.6
	v-8.6C67.5,14.2,66.3,13,64.7,13z M65.4,22.5h-2.1c-0.6,0-1.1-0.5-1.1-1.1v-1.2c0-0.6,0.5-1.1,1.1-1.1h2.1V22.5z M55.3,13h-1.8
	c-1.5,0-2.8,1.3-2.8,2.8v5.8c0,1.5,1.3,2.8,2.8,2.8h1.8c1.5,0,2.8-1.3,2.8-2.8v-0.7H56v0.5c0,0.6-0.5,1.1-1.1,1.1h-1.1
	c-0.6,0-1.1-0.5-1.1-1.1v-2.1H58v-1.9v-1.6C58.1,14.2,56.8,13,55.3,13z M52.8,17.4V16c0-0.6,0.5-1.1,1.1-1.1H55
	c0.6,0,1.1,0.5,1.1,1.1v1.4H52.8z M90.5,13h-1.8c-1.5,0-2.8,1.3-2.8,2.8v5.8c0,1.5,1.3,2.8,2.8,2.8h1.8c1.5,0,2.8-1.3,2.8-2.8v-0.7
	h-2.1v0.5c0,0.6-0.5,1.1-1.1,1.1H89c-0.6,0-1.1-0.5-1.1-1.1v-2.1h5.3v-1.9v-1.6C93.3,14.2,92.1,13,90.5,13z M88.1,17.4V16
	c0-0.6,0.5-1.1,1.1-1.1h1.1c0.6,0,1.1,0.5,1.1,1.1v1.4H88.1z M37,13l2.1,7.5l1.4-6.5H43l1.6,6.5l2.3-7.5h2.3l-3.7,11.4h-2.1L42,17.5
	h-0.2l-1.6,6.9h-2.1L34.7,13H37z M72.3,15.1v6.3c0,0.6,0.5,1.1,1.1,1.1H74v1.9h-1c-1.5,0-2.8-1.3-2.8-2.8v-6.5h-0.9V13h0.9V9.8h2.1
	V13h2.1v2.1H72.3z M83.9,15.8v8.6h-2.1v-8.3c0-0.5-0.4-1-1-1h-1.1c-0.6,0-1.1,0.5-1.1,1.1v8.2h-2.1V7.7h2.1v5.4
	c0.2-0.1,0.5-0.1,0.7-0.1h1.8C82.6,13,83.9,14.2,83.9,15.8z M100,14.9h-1.9c-0.3,0-0.5,0.2-0.5,0.5v8.9h-2.1V14
	c0-0.6,0.5-1.1,1.1-1.1h3.5L100,14.9L100,14.9z"/>
<path class="st1" d="M80.9,31.4H77v1.9h3.5c0.6,0,1.1,0.5,1.1,1.1v1.2h-2.5c-1.5,0-2.8,1.3-2.8,2.8V40c0,1.5,1.3,2.8,2.8,2.8h4.6
	v-8.6C83.7,32.7,82.4,31.4,80.9,31.4z M81.6,40.9h-2.1c-0.6,0-1.1-0.5-1.1-1.1v-1.2c0-0.6,0.5-1.1,1.1-1.1h2.1V40.9z M90.2,31.4
	h-4.6v9.8v1.6V47h2.1v-4.2h2.5c1.5,0,2.8-1.3,2.8-2.8v-5.8C93,32.7,91.7,31.4,90.2,31.4z M90.9,39.8c0,0.6-0.5,1.1-1.1,1.1h-1.1
	c-0.6,0-1.1-0.5-1.1-1.1v-6.5h2.1c0.6,0,1.1,0.5,1.1,1.1L90.9,39.8L90.9,39.8z M97.5,42.8h-2.1V31.4h2.1V42.8z M97.9,28.2
	c0,0.8-0.6,1.4-1.4,1.4s-1.4-0.6-1.4-1.4s0.6-1.4,1.4-1.4S97.9,27.5,97.9,28.2z"/>
<linearGradient id="SVGID_1_" gradientUnits="userSpaceOnUse" x1="15.6" y1="-1249.3" x2="15.6" y2="-1204.1" gradientTransform="matrix(1 0 0 -1 0 -1204)">
	<stop  offset="0" style="stop-color:#3C9F36"/>
	<stop  offset="1" style="stop-color:#AACA45"/>
</linearGradient>
<path class="st2" d="M31.2,29.7c0,8.6-7,15.6-15.6,15.6S0,38.3,0,29.7S14.5,0.1,14.5,0.1S31.2,21.1,31.2,29.7z"/>
<g>
	<path class="st3" d="M16.5,2.7L16.5,2.7L16.7,3l-1.3,8.6l-0.5,0.2l-0.6-0.2l-2.1-7.7l0.4-0.8c0.7-1,1.2-1.9,1.5-2.4l0.1-0.1h0.7
		l0.2,0.1C15.5,1.2,15.9,1.9,16.5,2.7z"/>
	<path class="st4" d="M22.5,14.3H22L15.1,12l-0.2-0.2L16.7,3c0.8,1.1,1.6,2.1,2.7,3.6l0.7,1.1l2.4,5.7
		C22.5,13.4,22.5,14.3,22.5,14.3z"/>
	<path class="st5" d="M15.1,0.7h-1C14.4,0.3,14.6,0,14.6,0S14.8,0.2,15.1,0.7z"/>
	<polygon class="st6" points="17.2,15.5 16.8,15.5 14.9,20.3 15.1,20.6 15.2,21.1 22.5,14.8 22.5,14.3 21.9,14.2 16.9,15.3 	"/>
	<path class="st7" d="M10.1,44.3l-0.2-0.2l-0.7-2.7l0.1-0.1h0.2l7.5,3.8l-0.2,0.2c-0.4,0-0.7,0-1.1,0C13.8,45.3,11.8,44.9,10.1,44.3
		z"/>
	<path class="st8" d="M23.9,42.9c-2.1,1.4-4.4,2.2-7.1,2.4l-0.2-0.1l-7.3-3.9l0.6-0.4l14.1,1L23.9,42.9z"/>
	<path class="st9" d="M30.2,35.1c-1.2,3.2-3.4,6-6.3,7.8L9.3,41.3l0.2-0.2l20.7-6.2V35.1z"/>
	<path class="st10" d="M31.1,31.6c-0.2,1.2-0.5,2.4-0.9,3.5l0,0L9.3,41.3l-0.2-0.6l5.2-9.8l0.9-0.1l3-5.3l0.5-0.1L31,31.3L31.1,31.6
		z"/>
	<polygon class="st11" points="7.9,30.5 7.6,30.9 9,40.7 9.3,41.3 15.2,30.8 	"/>
	<polygon class="st12" points="7.9,30.5 9.3,41.3 9.1,41.2 3.1,33.5 3.5,33.2 3.1,33 7.6,30 	"/>
	<path class="st13" d="M3.5,33.2l0.2,0.3L2,36.9l-0.3-0.1c-0.6-1.2-1.1-2.6-1.4-4v-0.3l3.2,0.4V33.2z"/>
	<path class="st14" d="M9.3,41.3L9.3,41.3l-3.9,0.2l-0.1-0.1c-1.5-1.3-2.7-2.8-3.6-4.6l1.8-3.6L9.3,41.3z"/>
	<path class="st15" d="M10.1,44.3c-1.8-0.7-3.4-1.6-4.8-2.9l4-0.1L10.1,44.3z"/>
	<path class="st16" d="M9.3,21.4l0.6-0.3l-1.7,9.1l-0.3,0.3H7.4L1,24.8l0.1-0.4c0.3-1,0.6-1.9,1.1-2.9L2.6,21l6.2-0.2L9.3,21.4z"/>
	<path class="st17" d="M7.9,30.5l-4.4,2.7l-3.2-0.4c-0.2-1-0.3-2.1-0.3-3.2c0-1.4,0.4-3.2,1.1-5.2L7.9,30.5z"/>
	<polygon class="st18" points="9.3,21.4 7.9,30.5 11.5,26.8 11.8,26.6 15.6,22.5 15.6,22.4 15.5,22 9.7,21.3 	"/>
	<polygon class="st19" points="22.5,14.3 22.9,14.6 19,24.9 18.2,25.5 17.8,25.5 15.5,22.7 15.6,22.4 15.3,22 21.9,14.9 	"/>
	<path class="st20" d="M31.2,29.6c0,0.7,0,1.5-0.1,2l-12.9-6.1l0.8-1.6l8.9-3.1l0.7,0.4C30.2,24.5,31.2,27.5,31.2,29.6z"/>
	<polygon class="st21" points="15.6,22.4 11.5,26.8 18.2,25.5 	"/>
	<path class="st22" d="M24.9,14.8v0.1l-2.4-0.5v-0.1V14l0.3-2.4l0.1,0.1C23.5,12.8,24.3,13.7,24.9,14.8z"/>
	<path class="st23" d="M28.6,21.2l-10.4,4.3l4.3-11.2l2.4,0.5C26.4,16.9,27.6,19.1,28.6,21.2z"/>
	<polygon class="st24" points="15.6,22.4 15.9,21.9 15.4,20.5 15.1,20.6 14.6,20.4 9.3,21.2 9.3,21.4 	"/>
	<polygon class="st25" points="15.1,20.6 15.2,20.2 8.3,16.5 7.7,16.5 7.5,16.6 9,21.3 9.3,21.4 	"/>
	<polygon class="st26" points="22.5,14.3 15.6,22.4 15.1,20.6 	"/>
	<polygon class="st27" points="7.7,16.5 8.4,16.7 17.1,15.7 17.2,15.5 17.5,15.4 15.3,12 14.9,11.8 14.1,11.7 7.5,16.1 	"/>
	<polygon class="st28" points="17.2,15.5 7.7,16.5 15.1,20.6 	"/>
	<path class="st29" d="M7.7,16.5v0.1l-3.2,0.3v-0.1c0.4-0.8,0.8-1.6,1.2-2.3l0.1-0.1l2,1.9L7.7,16.5z"/>
	<path class="st30" d="M9.3,21.4l-7.1,0.1c0.6-1.5,1.5-3.1,2.3-4.7l3.1-0.3L9.3,21.4z"/>
	<path class="st31" d="M14.9,11.8L14.5,12L7,12.3v-0.1c2-3.6,4.1-6.9,5.6-9.1L14.9,11.8z"/>
	<path class="st32" d="M14.9,11.8l-7.2,4.7l-2-2c0.4-0.8,0.9-1.6,1.3-2.3L14.9,11.8z"/>
	<polygon class="st33" points="17.2,15.5 22.5,14.3 14.9,11.8 	"/>
	<path class="st34" d="M22.9,11.7l-0.4,2.6l-3.1-7.7C20.6,8.1,21.8,9.9,22.9,11.7z"/>
</g>
<path class="st35" d="M19.5,25.2c-0.8-1.1-1.7-2.7-4.9-2.7S9,25.2,9.2,28.8c-2.3-1.4-3.9,0.7-3.9,2c0,1.7,1.4,3,3.1,3h14.4
	c1.8,0,3.1-1.4,3.1-3.1c0,0,0-0.1,0-1.9C25.9,26.9,23.2,23.4,19.5,25.2z"/>
</svg>
